<mxfile host="app.diagrams.net" modified="2022-04-14T15:34:09.824Z" agent="5.0 (Windows NT 10.0; Win64; x64) AppleWebKit/537.36 (KHTML, like Gecko) Chrome/100.0.4896.88 Safari/537.36" etag="SCGIQKrZo_1GrhaKbgSl" version="17.4.2" type="github">
  <diagram id="C5RBs43oDa-KdzZeNtuy" name="Page-1">
    <mxGraphModel dx="3552" dy="2612" grid="1" gridSize="10" guides="1" tooltips="1" connect="1" arrows="1" fold="1" page="1" pageScale="1" pageWidth="827" pageHeight="1169" math="0" shadow="0">
      <root>
        <mxCell id="WIyWlLk6GJQsqaUBKTNV-0" />
        <mxCell id="WIyWlLk6GJQsqaUBKTNV-1" parent="WIyWlLk6GJQsqaUBKTNV-0" />
        <mxCell id="zkfFHV4jXpPFQw0GAbJ--6" value="Empresa" style="swimlane;fontStyle=1;align=center;verticalAlign=top;childLayout=stackLayout;horizontal=1;startSize=26;horizontalStack=0;resizeParent=1;resizeLast=0;collapsible=1;marginBottom=0;rounded=0;shadow=0;strokeWidth=1;" parent="WIyWlLk6GJQsqaUBKTNV-1" vertex="1">
          <mxGeometry x="-290" y="-1070" width="250" height="294" as="geometry">
            <mxRectangle x="130" y="380" width="160" height="26" as="alternateBounds" />
          </mxGeometry>
        </mxCell>
        <mxCell id="zkfFHV4jXpPFQw0GAbJ--7" value="- nombre: String" style="text;align=left;verticalAlign=top;spacingLeft=4;spacingRight=4;overflow=hidden;rotatable=0;points=[[0,0.5],[1,0.5]];portConstraint=eastwest;" parent="zkfFHV4jXpPFQw0GAbJ--6" vertex="1">
          <mxGeometry y="26" width="250" height="26" as="geometry" />
        </mxCell>
        <mxCell id="zkfFHV4jXpPFQw0GAbJ--8" value="- cuit: String" style="text;align=left;verticalAlign=top;spacingLeft=4;spacingRight=4;overflow=hidden;rotatable=0;points=[[0,0.5],[1,0.5]];portConstraint=eastwest;rounded=0;shadow=0;html=0;" parent="zkfFHV4jXpPFQw0GAbJ--6" vertex="1">
          <mxGeometry y="52" width="250" height="26" as="geometry" />
        </mxCell>
        <mxCell id="zkfFHV4jXpPFQw0GAbJ--9" value="" style="line;html=1;strokeWidth=1;align=left;verticalAlign=middle;spacingTop=-1;spacingLeft=3;spacingRight=3;rotatable=0;labelPosition=right;points=[];portConstraint=eastwest;" parent="zkfFHV4jXpPFQw0GAbJ--6" vertex="1">
          <mxGeometry y="78" width="250" height="8" as="geometry" />
        </mxCell>
        <mxCell id="yzf1McUnUGxm_b6Z-Wyk-23" value="+ new()" style="text;align=left;verticalAlign=top;spacingLeft=4;spacingRight=4;overflow=hidden;rotatable=0;points=[[0,0.5],[1,0.5]];portConstraint=eastwest;fontStyle=4" parent="zkfFHV4jXpPFQw0GAbJ--6" vertex="1">
          <mxGeometry y="86" width="250" height="26" as="geometry" />
        </mxCell>
        <mxCell id="yzf1McUnUGxm_b6Z-Wyk-24" value="+ new(String nombre, String cuit)" style="text;align=left;verticalAlign=top;spacingLeft=4;spacingRight=4;overflow=hidden;rotatable=0;points=[[0,0.5],[1,0.5]];portConstraint=eastwest;fontStyle=4" parent="zkfFHV4jXpPFQw0GAbJ--6" vertex="1">
          <mxGeometry y="112" width="250" height="26" as="geometry" />
        </mxCell>
        <mxCell id="yzf1McUnUGxm_b6Z-Wyk-25" value="+ agregarEmpleado(): Empresa" style="text;align=left;verticalAlign=top;spacingLeft=4;spacingRight=4;overflow=hidden;rotatable=0;points=[[0,0.5],[1,0.5]];portConstraint=eastwest;" parent="zkfFHV4jXpPFQw0GAbJ--6" vertex="1">
          <mxGeometry y="138" width="250" height="26" as="geometry" />
        </mxCell>
        <mxCell id="zkfFHV4jXpPFQw0GAbJ--11" value="+ montoTotalSueldosNetos(): Double" style="text;align=left;verticalAlign=top;spacingLeft=4;spacingRight=4;overflow=hidden;rotatable=0;points=[[0,0.5],[1,0.5]];portConstraint=eastwest;" parent="zkfFHV4jXpPFQw0GAbJ--6" vertex="1">
          <mxGeometry y="164" width="250" height="26" as="geometry" />
        </mxCell>
        <mxCell id="E6LZfar_0cPYCz-3I67T-0" value="+ montoTotalSueldosBrutos(): Double" style="text;align=left;verticalAlign=top;spacingLeft=4;spacingRight=4;overflow=hidden;rotatable=0;points=[[0,0.5],[1,0.5]];portConstraint=eastwest;" parent="zkfFHV4jXpPFQw0GAbJ--6" vertex="1">
          <mxGeometry y="190" width="250" height="26" as="geometry" />
        </mxCell>
        <mxCell id="E6LZfar_0cPYCz-3I67T-1" value="+ montoTotalRetenciones(): Double" style="text;align=left;verticalAlign=top;spacingLeft=4;spacingRight=4;overflow=hidden;rotatable=0;points=[[0,0.5],[1,0.5]];portConstraint=eastwest;" parent="zkfFHV4jXpPFQw0GAbJ--6" vertex="1">
          <mxGeometry y="216" width="250" height="26" as="geometry" />
        </mxCell>
        <mxCell id="E6LZfar_0cPYCz-3I67T-2" value="+ liquidacionSueldos(): void" style="text;align=left;verticalAlign=top;spacingLeft=4;spacingRight=4;overflow=hidden;rotatable=0;points=[[0,0.5],[1,0.5]];portConstraint=eastwest;" parent="zkfFHV4jXpPFQw0GAbJ--6" vertex="1">
          <mxGeometry y="242" width="250" height="26" as="geometry" />
        </mxCell>
        <mxCell id="yzf1McUnUGxm_b6Z-Wyk-26" value="+ reciboHaberes(): List&lt;ReciboHaberes&gt;" style="text;align=left;verticalAlign=top;spacingLeft=4;spacingRight=4;overflow=hidden;rotatable=0;points=[[0,0.5],[1,0.5]];portConstraint=eastwest;" parent="zkfFHV4jXpPFQw0GAbJ--6" vertex="1">
          <mxGeometry y="268" width="250" height="26" as="geometry" />
        </mxCell>
        <mxCell id="zkfFHV4jXpPFQw0GAbJ--17" value="Empleado" style="swimlane;fontStyle=3;align=center;verticalAlign=top;childLayout=stackLayout;horizontal=1;startSize=26;horizontalStack=0;resizeParent=1;resizeLast=0;collapsible=1;marginBottom=0;rounded=0;shadow=0;strokeWidth=1;" parent="WIyWlLk6GJQsqaUBKTNV-1" vertex="1">
          <mxGeometry x="130" y="-1070" width="580" height="320" as="geometry">
            <mxRectangle x="550" y="140" width="160" height="26" as="alternateBounds" />
          </mxGeometry>
        </mxCell>
        <mxCell id="zkfFHV4jXpPFQw0GAbJ--18" value="# nombre: String" style="text;align=left;verticalAlign=top;spacingLeft=4;spacingRight=4;overflow=hidden;rotatable=0;points=[[0,0.5],[1,0.5]];portConstraint=eastwest;" parent="zkfFHV4jXpPFQw0GAbJ--17" vertex="1">
          <mxGeometry y="26" width="580" height="26" as="geometry" />
        </mxCell>
        <mxCell id="zkfFHV4jXpPFQw0GAbJ--19" value="# direccion: String" style="text;align=left;verticalAlign=top;spacingLeft=4;spacingRight=4;overflow=hidden;rotatable=0;points=[[0,0.5],[1,0.5]];portConstraint=eastwest;rounded=0;shadow=0;html=0;" parent="zkfFHV4jXpPFQw0GAbJ--17" vertex="1">
          <mxGeometry y="52" width="580" height="26" as="geometry" />
        </mxCell>
        <mxCell id="zkfFHV4jXpPFQw0GAbJ--20" value="# estadoCivil: Boolean" style="text;align=left;verticalAlign=top;spacingLeft=4;spacingRight=4;overflow=hidden;rotatable=0;points=[[0,0.5],[1,0.5]];portConstraint=eastwest;rounded=0;shadow=0;html=0;" parent="zkfFHV4jXpPFQw0GAbJ--17" vertex="1">
          <mxGeometry y="78" width="580" height="26" as="geometry" />
        </mxCell>
        <mxCell id="zkfFHV4jXpPFQw0GAbJ--21" value="# fechaNacimiento: Date" style="text;align=left;verticalAlign=top;spacingLeft=4;spacingRight=4;overflow=hidden;rotatable=0;points=[[0,0.5],[1,0.5]];portConstraint=eastwest;rounded=0;shadow=0;html=0;" parent="zkfFHV4jXpPFQw0GAbJ--17" vertex="1">
          <mxGeometry y="104" width="580" height="26" as="geometry" />
        </mxCell>
        <mxCell id="zkfFHV4jXpPFQw0GAbJ--22" value="# sueldoBasico: Double" style="text;align=left;verticalAlign=top;spacingLeft=4;spacingRight=4;overflow=hidden;rotatable=0;points=[[0,0.5],[1,0.5]];portConstraint=eastwest;rounded=0;shadow=0;html=0;" parent="zkfFHV4jXpPFQw0GAbJ--17" vertex="1">
          <mxGeometry y="130" width="580" height="26" as="geometry" />
        </mxCell>
        <mxCell id="zkfFHV4jXpPFQw0GAbJ--23" value="" style="line;html=1;strokeWidth=1;align=left;verticalAlign=middle;spacingTop=-1;spacingLeft=3;spacingRight=3;rotatable=0;labelPosition=right;points=[];portConstraint=eastwest;" parent="zkfFHV4jXpPFQw0GAbJ--17" vertex="1">
          <mxGeometry y="156" width="580" height="8" as="geometry" />
        </mxCell>
        <mxCell id="yzf1McUnUGxm_b6Z-Wyk-0" value="+ new(String nombre, String direccion, Boolean estadoCivil, Date fechaNacimiento, Double sueldoBasico)" style="text;align=left;verticalAlign=top;spacingLeft=4;spacingRight=4;overflow=hidden;rotatable=0;points=[[0,0.5],[1,0.5]];portConstraint=eastwest;fontStyle=4" parent="zkfFHV4jXpPFQw0GAbJ--17" vertex="1">
          <mxGeometry y="164" width="580" height="26" as="geometry" />
        </mxCell>
        <mxCell id="nwJ270YW6wxKtkPxq6GA-1" value="+ calcularEdad(): Integer" style="text;align=left;verticalAlign=top;spacingLeft=4;spacingRight=4;overflow=hidden;rotatable=0;points=[[0,0.5],[1,0.5]];portConstraint=eastwest;" parent="zkfFHV4jXpPFQw0GAbJ--17" vertex="1">
          <mxGeometry y="190" width="580" height="26" as="geometry" />
        </mxCell>
        <mxCell id="zkfFHV4jXpPFQw0GAbJ--25" value="+ calcularSueldoBruto(): Double" style="text;align=left;verticalAlign=top;spacingLeft=4;spacingRight=4;overflow=hidden;rotatable=0;points=[[0,0.5],[1,0.5]];portConstraint=eastwest;" parent="zkfFHV4jXpPFQw0GAbJ--17" vertex="1">
          <mxGeometry y="216" width="580" height="26" as="geometry" />
        </mxCell>
        <mxCell id="JnNT9-7fcuWE7zyktl3N-20" value="+ calcularRetenciones(): Double" style="text;align=left;verticalAlign=top;spacingLeft=4;spacingRight=4;overflow=hidden;rotatable=0;points=[[0,0.5],[1,0.5]];portConstraint=eastwest;" parent="zkfFHV4jXpPFQw0GAbJ--17" vertex="1">
          <mxGeometry y="242" width="580" height="26" as="geometry" />
        </mxCell>
        <mxCell id="nwJ270YW6wxKtkPxq6GA-0" value="+ calcularSueldoNetoRestante(): Double" style="text;align=left;verticalAlign=top;spacingLeft=4;spacingRight=4;overflow=hidden;rotatable=0;points=[[0,0.5],[1,0.5]];portConstraint=eastwest;" parent="zkfFHV4jXpPFQw0GAbJ--17" vertex="1">
          <mxGeometry y="268" width="580" height="26" as="geometry" />
        </mxCell>
        <mxCell id="yzf1McUnUGxm_b6Z-Wyk-3" value="+ conceptos(): String" style="text;align=left;verticalAlign=top;spacingLeft=4;spacingRight=4;overflow=hidden;rotatable=0;points=[[0,0.5],[1,0.5]];portConstraint=eastwest;" parent="zkfFHV4jXpPFQw0GAbJ--17" vertex="1">
          <mxGeometry y="294" width="580" height="26" as="geometry" />
        </mxCell>
        <mxCell id="zkfFHV4jXpPFQw0GAbJ--26" value="" style="endArrow=open;shadow=0;strokeWidth=1;rounded=0;endFill=1;edgeStyle=elbowEdgeStyle;elbow=vertical;exitX=1;exitY=0.5;exitDx=0;exitDy=0;entryX=0;entryY=0.5;entryDx=0;entryDy=0;" parent="WIyWlLk6GJQsqaUBKTNV-1" source="zkfFHV4jXpPFQw0GAbJ--8" target="zkfFHV4jXpPFQw0GAbJ--19" edge="1">
          <mxGeometry x="0.5" y="41" relative="1" as="geometry">
            <mxPoint x="-50" y="-980" as="sourcePoint" />
            <mxPoint x="90" y="-980" as="targetPoint" />
            <mxPoint x="-40" y="32" as="offset" />
          </mxGeometry>
        </mxCell>
        <mxCell id="zkfFHV4jXpPFQw0GAbJ--27" value="1" style="resizable=0;align=left;verticalAlign=bottom;labelBackgroundColor=none;fontSize=12;" parent="zkfFHV4jXpPFQw0GAbJ--26" connectable="0" vertex="1">
          <mxGeometry x="-1" relative="1" as="geometry">
            <mxPoint x="1" y="2" as="offset" />
          </mxGeometry>
        </mxCell>
        <mxCell id="zkfFHV4jXpPFQw0GAbJ--28" value="*" style="resizable=0;align=right;verticalAlign=bottom;labelBackgroundColor=none;fontSize=12;" parent="zkfFHV4jXpPFQw0GAbJ--26" connectable="0" vertex="1">
          <mxGeometry x="1" relative="1" as="geometry">
            <mxPoint x="-7" y="2" as="offset" />
          </mxGeometry>
        </mxCell>
        <mxCell id="zkfFHV4jXpPFQw0GAbJ--29" value="empleados" style="text;html=1;resizable=0;points=[];;align=center;verticalAlign=middle;labelBackgroundColor=none;rounded=0;shadow=0;strokeWidth=1;fontSize=12;" parent="zkfFHV4jXpPFQw0GAbJ--26" vertex="1" connectable="0">
          <mxGeometry x="0.5" y="49" relative="1" as="geometry">
            <mxPoint x="-40" y="40" as="offset" />
          </mxGeometry>
        </mxCell>
        <mxCell id="JnNT9-7fcuWE7zyktl3N-1" value="EmpleadoTemporal" style="swimlane;fontStyle=1;align=center;verticalAlign=top;childLayout=stackLayout;horizontal=1;startSize=26;horizontalStack=0;resizeParent=1;resizeLast=0;collapsible=1;marginBottom=0;rounded=0;shadow=0;strokeWidth=1;" parent="WIyWlLk6GJQsqaUBKTNV-1" vertex="1">
          <mxGeometry x="-670" y="-520" width="880" height="294" as="geometry">
            <mxRectangle x="550" y="140" width="160" height="26" as="alternateBounds" />
          </mxGeometry>
        </mxCell>
        <mxCell id="JnNT9-7fcuWE7zyktl3N-2" value="- fechaFinDesignacion: Date" style="text;align=left;verticalAlign=top;spacingLeft=4;spacingRight=4;overflow=hidden;rotatable=0;points=[[0,0.5],[1,0.5]];portConstraint=eastwest;" parent="JnNT9-7fcuWE7zyktl3N-1" vertex="1">
          <mxGeometry y="26" width="880" height="26" as="geometry" />
        </mxCell>
        <mxCell id="JnNT9-7fcuWE7zyktl3N-3" value="- cantidadHorasExtras: Integer" style="text;align=left;verticalAlign=top;spacingLeft=4;spacingRight=4;overflow=hidden;rotatable=0;points=[[0,0.5],[1,0.5]];portConstraint=eastwest;rounded=0;shadow=0;html=0;" parent="JnNT9-7fcuWE7zyktl3N-1" vertex="1">
          <mxGeometry y="52" width="880" height="26" as="geometry" />
        </mxCell>
        <mxCell id="JnNT9-7fcuWE7zyktl3N-7" value="" style="line;html=1;strokeWidth=1;align=left;verticalAlign=middle;spacingTop=-1;spacingLeft=3;spacingRight=3;rotatable=0;labelPosition=right;points=[];portConstraint=eastwest;" parent="JnNT9-7fcuWE7zyktl3N-1" vertex="1">
          <mxGeometry y="78" width="880" height="8" as="geometry" />
        </mxCell>
        <mxCell id="yzf1McUnUGxm_b6Z-Wyk-15" value="+ new(String nombre, String direccion, Boolean estadoCivil, Date fechaNacimiento, Double sueldoBasico, Date fechaFinDesignacion, Integer cantidadHorasExtras)" style="text;align=left;verticalAlign=top;spacingLeft=4;spacingRight=4;overflow=hidden;rotatable=0;points=[[0,0.5],[1,0.5]];portConstraint=eastwest;rounded=0;shadow=0;html=0;fontStyle=4" parent="JnNT9-7fcuWE7zyktl3N-1" vertex="1">
          <mxGeometry y="86" width="880" height="26" as="geometry" />
        </mxCell>
        <mxCell id="yzf1McUnUGxm_b6Z-Wyk-16" value="+ calcularSueldoBruto(): Double" style="text;align=left;verticalAlign=top;spacingLeft=4;spacingRight=4;overflow=hidden;rotatable=0;points=[[0,0.5],[1,0.5]];portConstraint=eastwest;rounded=0;shadow=0;html=0;" parent="JnNT9-7fcuWE7zyktl3N-1" vertex="1">
          <mxGeometry y="112" width="880" height="26" as="geometry" />
        </mxCell>
        <mxCell id="yzf1McUnUGxm_b6Z-Wyk-17" value="+ calcularRetenciones(): Double" style="text;align=left;verticalAlign=top;spacingLeft=4;spacingRight=4;overflow=hidden;rotatable=0;points=[[0,0.5],[1,0.5]];portConstraint=eastwest;rounded=0;shadow=0;html=0;" parent="JnNT9-7fcuWE7zyktl3N-1" vertex="1">
          <mxGeometry y="138" width="880" height="26" as="geometry" />
        </mxCell>
        <mxCell id="yzf1McUnUGxm_b6Z-Wyk-18" value="+ tieneMasDe50Años(): Double" style="text;align=left;verticalAlign=top;spacingLeft=4;spacingRight=4;overflow=hidden;rotatable=0;points=[[0,0.5],[1,0.5]];portConstraint=eastwest;rounded=0;shadow=0;html=0;" parent="JnNT9-7fcuWE7zyktl3N-1" vertex="1">
          <mxGeometry y="164" width="880" height="26" as="geometry" />
        </mxCell>
        <mxCell id="yzf1McUnUGxm_b6Z-Wyk-19" value="+ sueldoBasico(): Double" style="text;align=left;verticalAlign=top;spacingLeft=4;spacingRight=4;overflow=hidden;rotatable=0;points=[[0,0.5],[1,0.5]];portConstraint=eastwest;rounded=0;shadow=0;html=0;" parent="JnNT9-7fcuWE7zyktl3N-1" vertex="1">
          <mxGeometry y="190" width="880" height="26" as="geometry" />
        </mxCell>
        <mxCell id="yzf1McUnUGxm_b6Z-Wyk-20" value="+ obraSocial(): Double" style="text;align=left;verticalAlign=top;spacingLeft=4;spacingRight=4;overflow=hidden;rotatable=0;points=[[0,0.5],[1,0.5]];portConstraint=eastwest;rounded=0;shadow=0;html=0;" parent="JnNT9-7fcuWE7zyktl3N-1" vertex="1">
          <mxGeometry y="216" width="880" height="26" as="geometry" />
        </mxCell>
        <mxCell id="yzf1McUnUGxm_b6Z-Wyk-21" value="+ aportesJubilatorios(): Double" style="text;align=left;verticalAlign=top;spacingLeft=4;spacingRight=4;overflow=hidden;rotatable=0;points=[[0,0.5],[1,0.5]];portConstraint=eastwest;rounded=0;shadow=0;html=0;" parent="JnNT9-7fcuWE7zyktl3N-1" vertex="1">
          <mxGeometry y="242" width="880" height="26" as="geometry" />
        </mxCell>
        <mxCell id="yzf1McUnUGxm_b6Z-Wyk-22" value="+ conceptos(): String" style="text;align=left;verticalAlign=top;spacingLeft=4;spacingRight=4;overflow=hidden;rotatable=0;points=[[0,0.5],[1,0.5]];portConstraint=eastwest;rounded=0;shadow=0;html=0;" parent="JnNT9-7fcuWE7zyktl3N-1" vertex="1">
          <mxGeometry y="268" width="880" height="26" as="geometry" />
        </mxCell>
        <mxCell id="JnNT9-7fcuWE7zyktl3N-10" value="EmpleadoPermanente" style="swimlane;fontStyle=1;align=center;verticalAlign=top;childLayout=stackLayout;horizontal=1;startSize=26;horizontalStack=0;resizeParent=1;resizeLast=0;collapsible=1;marginBottom=0;rounded=0;shadow=0;strokeWidth=1;" parent="WIyWlLk6GJQsqaUBKTNV-1" vertex="1">
          <mxGeometry x="280" y="-520" width="790" height="320" as="geometry">
            <mxRectangle x="510" y="880" width="160" height="26" as="alternateBounds" />
          </mxGeometry>
        </mxCell>
        <mxCell id="JnNT9-7fcuWE7zyktl3N-11" value="- cantidadDeHijos: Integer" style="text;align=left;verticalAlign=top;spacingLeft=4;spacingRight=4;overflow=hidden;rotatable=0;points=[[0,0.5],[1,0.5]];portConstraint=eastwest;" parent="JnNT9-7fcuWE7zyktl3N-10" vertex="1">
          <mxGeometry y="26" width="790" height="26" as="geometry" />
        </mxCell>
        <mxCell id="JnNT9-7fcuWE7zyktl3N-12" value="- antiguedad: Date" style="text;align=left;verticalAlign=top;spacingLeft=4;spacingRight=4;overflow=hidden;rotatable=0;points=[[0,0.5],[1,0.5]];portConstraint=eastwest;rounded=0;shadow=0;html=0;" parent="JnNT9-7fcuWE7zyktl3N-10" vertex="1">
          <mxGeometry y="52" width="790" height="26" as="geometry" />
        </mxCell>
        <mxCell id="JnNT9-7fcuWE7zyktl3N-16" value="" style="line;html=1;strokeWidth=1;align=left;verticalAlign=middle;spacingTop=-1;spacingLeft=3;spacingRight=3;rotatable=0;labelPosition=right;points=[];portConstraint=eastwest;" parent="JnNT9-7fcuWE7zyktl3N-10" vertex="1">
          <mxGeometry y="78" width="790" height="8" as="geometry" />
        </mxCell>
        <mxCell id="yzf1McUnUGxm_b6Z-Wyk-5" value="+ new(String nombre, String direccion, Boolean estadoCivil, Date fechaNacimiento, Double sueldoBasico, Integer cantidadHijos, Date antiguedad)" style="text;align=left;verticalAlign=top;spacingLeft=4;spacingRight=4;overflow=hidden;rotatable=0;points=[[0,0.5],[1,0.5]];portConstraint=eastwest;rounded=0;shadow=0;html=0;fontStyle=4" parent="JnNT9-7fcuWE7zyktl3N-10" vertex="1">
          <mxGeometry y="86" width="790" height="26" as="geometry" />
        </mxCell>
        <mxCell id="yzf1McUnUGxm_b6Z-Wyk-7" value="+ calcularSueldoBruto(): Double" style="text;align=left;verticalAlign=top;spacingLeft=4;spacingRight=4;overflow=hidden;rotatable=0;points=[[0,0.5],[1,0.5]];portConstraint=eastwest;rounded=0;shadow=0;html=0;fontStyle=0" parent="JnNT9-7fcuWE7zyktl3N-10" vertex="1">
          <mxGeometry y="112" width="790" height="26" as="geometry" />
        </mxCell>
        <mxCell id="yzf1McUnUGxm_b6Z-Wyk-8" value="+ calcularRetenciones(): Double" style="text;align=left;verticalAlign=top;spacingLeft=4;spacingRight=4;overflow=hidden;rotatable=0;points=[[0,0.5],[1,0.5]];portConstraint=eastwest;rounded=0;shadow=0;html=0;fontStyle=0" parent="JnNT9-7fcuWE7zyktl3N-10" vertex="1">
          <mxGeometry y="138" width="790" height="26" as="geometry" />
        </mxCell>
        <mxCell id="yzf1McUnUGxm_b6Z-Wyk-9" value="+ asignacionPorHijo(): Double" style="text;align=left;verticalAlign=top;spacingLeft=4;spacingRight=4;overflow=hidden;rotatable=0;points=[[0,0.5],[1,0.5]];portConstraint=eastwest;rounded=0;shadow=0;html=0;fontStyle=0" parent="JnNT9-7fcuWE7zyktl3N-10" vertex="1">
          <mxGeometry y="164" width="790" height="26" as="geometry" />
        </mxCell>
        <mxCell id="yzf1McUnUGxm_b6Z-Wyk-10" value="+ asignacionPorConyuge(): Double" style="text;align=left;verticalAlign=top;spacingLeft=4;spacingRight=4;overflow=hidden;rotatable=0;points=[[0,0.5],[1,0.5]];portConstraint=eastwest;rounded=0;shadow=0;html=0;fontStyle=0" parent="JnNT9-7fcuWE7zyktl3N-10" vertex="1">
          <mxGeometry y="190" width="790" height="26" as="geometry" />
        </mxCell>
        <mxCell id="yzf1McUnUGxm_b6Z-Wyk-11" value="+ antiguedad(): Integer" style="text;align=left;verticalAlign=top;spacingLeft=4;spacingRight=4;overflow=hidden;rotatable=0;points=[[0,0.5],[1,0.5]];portConstraint=eastwest;rounded=0;shadow=0;html=0;fontStyle=0" parent="JnNT9-7fcuWE7zyktl3N-10" vertex="1">
          <mxGeometry y="216" width="790" height="26" as="geometry" />
        </mxCell>
        <mxCell id="yzf1McUnUGxm_b6Z-Wyk-12" value="+ obraSocial(): Double" style="text;align=left;verticalAlign=top;spacingLeft=4;spacingRight=4;overflow=hidden;rotatable=0;points=[[0,0.5],[1,0.5]];portConstraint=eastwest;rounded=0;shadow=0;html=0;fontStyle=0" parent="JnNT9-7fcuWE7zyktl3N-10" vertex="1">
          <mxGeometry y="242" width="790" height="26" as="geometry" />
        </mxCell>
        <mxCell id="yzf1McUnUGxm_b6Z-Wyk-13" value="+ aportesJubilatorios(): Double" style="text;align=left;verticalAlign=top;spacingLeft=4;spacingRight=4;overflow=hidden;rotatable=0;points=[[0,0.5],[1,0.5]];portConstraint=eastwest;rounded=0;shadow=0;html=0;fontStyle=0" parent="JnNT9-7fcuWE7zyktl3N-10" vertex="1">
          <mxGeometry y="268" width="790" height="26" as="geometry" />
        </mxCell>
        <mxCell id="yzf1McUnUGxm_b6Z-Wyk-14" value="+ conceptos(): String" style="text;align=left;verticalAlign=top;spacingLeft=4;spacingRight=4;overflow=hidden;rotatable=0;points=[[0,0.5],[1,0.5]];portConstraint=eastwest;rounded=0;shadow=0;html=0;fontStyle=0" parent="JnNT9-7fcuWE7zyktl3N-10" vertex="1">
          <mxGeometry y="294" width="790" height="26" as="geometry" />
        </mxCell>
        <mxCell id="JnNT9-7fcuWE7zyktl3N-21" value="" style="endArrow=block;endSize=10;endFill=0;shadow=0;strokeWidth=1;rounded=0;edgeStyle=elbowEdgeStyle;elbow=vertical;exitX=0.5;exitY=0;exitDx=0;exitDy=0;entryX=0.5;entryY=1;entryDx=0;entryDy=0;" parent="WIyWlLk6GJQsqaUBKTNV-1" source="JnNT9-7fcuWE7zyktl3N-10" target="zkfFHV4jXpPFQw0GAbJ--17" edge="1">
          <mxGeometry width="160" relative="1" as="geometry">
            <mxPoint x="80" y="-1250" as="sourcePoint" />
            <mxPoint x="360" y="-780" as="targetPoint" />
          </mxGeometry>
        </mxCell>
        <mxCell id="JnNT9-7fcuWE7zyktl3N-22" value="" style="endArrow=block;endSize=10;endFill=0;shadow=0;strokeWidth=1;rounded=0;edgeStyle=elbowEdgeStyle;elbow=vertical;exitX=0.5;exitY=0;exitDx=0;exitDy=0;entryX=0.25;entryY=1;entryDx=0;entryDy=0;" parent="WIyWlLk6GJQsqaUBKTNV-1" source="JnNT9-7fcuWE7zyktl3N-1" target="zkfFHV4jXpPFQw0GAbJ--17" edge="1">
          <mxGeometry width="160" relative="1" as="geometry">
            <mxPoint x="-163.2" y="-753.25" as="sourcePoint" />
            <mxPoint x="80" y="-780" as="targetPoint" />
          </mxGeometry>
        </mxCell>
        <mxCell id="E6LZfar_0cPYCz-3I67T-3" value="ReciboHaberes" style="swimlane;fontStyle=1;align=center;verticalAlign=top;childLayout=stackLayout;horizontal=1;startSize=26;horizontalStack=0;resizeParent=1;resizeLast=0;collapsible=1;marginBottom=0;rounded=0;shadow=0;strokeWidth=1;" parent="WIyWlLk6GJQsqaUBKTNV-1" vertex="1">
          <mxGeometry x="-780" y="-890" width="330" height="60" as="geometry">
            <mxRectangle x="130" y="380" width="160" height="26" as="alternateBounds" />
          </mxGeometry>
        </mxCell>
        <mxCell id="E6LZfar_0cPYCz-3I67T-6" value="" style="line;html=1;strokeWidth=1;align=left;verticalAlign=middle;spacingTop=-1;spacingLeft=3;spacingRight=3;rotatable=0;labelPosition=right;points=[];portConstraint=eastwest;" parent="E6LZfar_0cPYCz-3I67T-3" vertex="1">
          <mxGeometry y="26" width="330" height="8" as="geometry" />
        </mxCell>
        <mxCell id="VXXqU22cxP4O66-GsX6c-1" value="+ generarReciboHaberes(Empleado empleado) : String" style="text;align=left;verticalAlign=top;spacingLeft=4;spacingRight=4;overflow=hidden;rotatable=0;points=[[0,0.5],[1,0.5]];portConstraint=eastwest;rounded=0;shadow=0;html=0;fontStyle=0" parent="E6LZfar_0cPYCz-3I67T-3" vertex="1">
          <mxGeometry y="34" width="330" height="26" as="geometry" />
        </mxCell>
        <mxCell id="tojFOclZx8OMovrntNYi-5" value="" style="endArrow=open;shadow=0;strokeWidth=1;rounded=0;endFill=1;edgeStyle=elbowEdgeStyle;elbow=vertical;entryX=0.5;entryY=0;entryDx=0;entryDy=0;startArrow=none;startFill=0;exitX=0.004;exitY=0.923;exitDx=0;exitDy=0;exitPerimeter=0;" parent="WIyWlLk6GJQsqaUBKTNV-1" source="zkfFHV4jXpPFQw0GAbJ--7" target="E6LZfar_0cPYCz-3I67T-3" edge="1">
          <mxGeometry x="0.5" y="41" relative="1" as="geometry">
            <mxPoint x="-300" y="-1020" as="sourcePoint" />
            <mxPoint x="-410" y="-830" as="targetPoint" />
            <mxPoint x="-40" y="32" as="offset" />
            <Array as="points">
              <mxPoint x="-310" y="-1020" />
            </Array>
          </mxGeometry>
        </mxCell>
        <mxCell id="tojFOclZx8OMovrntNYi-6" value="1" style="resizable=0;align=left;verticalAlign=bottom;labelBackgroundColor=none;fontSize=12;" parent="tojFOclZx8OMovrntNYi-5" connectable="0" vertex="1">
          <mxGeometry x="-1" relative="1" as="geometry">
            <mxPoint x="-19" y="2" as="offset" />
          </mxGeometry>
        </mxCell>
        <mxCell id="tojFOclZx8OMovrntNYi-7" value="*" style="resizable=0;align=right;verticalAlign=bottom;labelBackgroundColor=none;fontSize=12;" parent="tojFOclZx8OMovrntNYi-5" connectable="0" vertex="1">
          <mxGeometry x="1" relative="1" as="geometry">
            <mxPoint x="-7" y="2" as="offset" />
          </mxGeometry>
        </mxCell>
        <mxCell id="VXXqU22cxP4O66-GsX6c-7" value="Ejercicio 1" style="text;html=1;strokeColor=none;fillColor=none;align=center;verticalAlign=middle;whiteSpace=wrap;rounded=0;fontSize=46;" parent="WIyWlLk6GJQsqaUBKTNV-1" vertex="1">
          <mxGeometry x="-730" y="-1150" width="290" height="30" as="geometry" />
        </mxCell>
        <mxCell id="VXXqU22cxP4O66-GsX6c-80" value="Ejercicio 2" style="text;html=1;strokeColor=none;fillColor=none;align=center;verticalAlign=middle;whiteSpace=wrap;rounded=0;fontSize=46;" parent="WIyWlLk6GJQsqaUBKTNV-1" vertex="1">
          <mxGeometry x="-760" y="40" width="290" height="30" as="geometry" />
        </mxCell>
        <mxCell id="VXXqU22cxP4O66-GsX6c-81" value="EmpleadoContratado" style="swimlane;fontStyle=1;align=center;verticalAlign=top;childLayout=stackLayout;horizontal=1;startSize=26;horizontalStack=0;resizeParent=1;resizeLast=0;collapsible=1;marginBottom=0;rounded=0;shadow=0;strokeWidth=1;" parent="WIyWlLk6GJQsqaUBKTNV-1" vertex="1">
          <mxGeometry x="770" y="400" width="790" height="216" as="geometry">
            <mxRectangle x="510" y="880" width="160" height="26" as="alternateBounds" />
          </mxGeometry>
        </mxCell>
        <mxCell id="VXXqU22cxP4O66-GsX6c-82" value="- nroContrato: Integer" style="text;align=left;verticalAlign=top;spacingLeft=4;spacingRight=4;overflow=hidden;rotatable=0;points=[[0,0.5],[1,0.5]];portConstraint=eastwest;" parent="VXXqU22cxP4O66-GsX6c-81" vertex="1">
          <mxGeometry y="26" width="790" height="26" as="geometry" />
        </mxCell>
        <mxCell id="VXXqU22cxP4O66-GsX6c-83" value="- medioPago: String" style="text;align=left;verticalAlign=top;spacingLeft=4;spacingRight=4;overflow=hidden;rotatable=0;points=[[0,0.5],[1,0.5]];portConstraint=eastwest;rounded=0;shadow=0;html=0;" parent="VXXqU22cxP4O66-GsX6c-81" vertex="1">
          <mxGeometry y="52" width="790" height="26" as="geometry" />
        </mxCell>
        <mxCell id="VXXqU22cxP4O66-GsX6c-84" value="" style="line;html=1;strokeWidth=1;align=left;verticalAlign=middle;spacingTop=-1;spacingLeft=3;spacingRight=3;rotatable=0;labelPosition=right;points=[];portConstraint=eastwest;" parent="VXXqU22cxP4O66-GsX6c-81" vertex="1">
          <mxGeometry y="78" width="790" height="8" as="geometry" />
        </mxCell>
        <mxCell id="VXXqU22cxP4O66-GsX6c-99" value="+ new(String nombre, String direccion, Boolean estadoCivil, Date fechaNacimiento, Double sueldoBasico, Integer nroContrato, String medioPago)" style="text;align=left;verticalAlign=top;spacingLeft=4;spacingRight=4;overflow=hidden;rotatable=0;points=[[0,0.5],[1,0.5]];portConstraint=eastwest;rounded=0;shadow=0;html=0;fontStyle=4" parent="VXXqU22cxP4O66-GsX6c-81" vertex="1">
          <mxGeometry y="86" width="790" height="26" as="geometry" />
        </mxCell>
        <mxCell id="VXXqU22cxP4O66-GsX6c-91" value="+ sueldoBruto(): Double" style="text;align=left;verticalAlign=top;spacingLeft=4;spacingRight=4;overflow=hidden;rotatable=0;points=[[0,0.5],[1,0.5]];portConstraint=eastwest;rounded=0;shadow=0;html=0;fontStyle=0" parent="VXXqU22cxP4O66-GsX6c-81" vertex="1">
          <mxGeometry y="112" width="790" height="26" as="geometry" />
        </mxCell>
        <mxCell id="VXXqU22cxP4O66-GsX6c-95" value="+ sueldoBasico(): Double" style="text;align=left;verticalAlign=top;spacingLeft=4;spacingRight=4;overflow=hidden;rotatable=0;points=[[0,0.5],[1,0.5]];portConstraint=eastwest;rounded=0;shadow=0;html=0;fontStyle=0" parent="VXXqU22cxP4O66-GsX6c-81" vertex="1">
          <mxGeometry y="138" width="790" height="26" as="geometry" />
        </mxCell>
        <mxCell id="VXXqU22cxP4O66-GsX6c-97" value="+ calcularRetenciones(): Double" style="text;align=left;verticalAlign=top;spacingLeft=4;spacingRight=4;overflow=hidden;rotatable=0;points=[[0,0.5],[1,0.5]];portConstraint=eastwest;rounded=0;shadow=0;html=0;fontStyle=0" parent="VXXqU22cxP4O66-GsX6c-81" vertex="1">
          <mxGeometry y="164" width="790" height="26" as="geometry" />
        </mxCell>
        <mxCell id="VXXqU22cxP4O66-GsX6c-98" value="+ gastosAdministrativosContractuales(): Double" style="text;align=left;verticalAlign=top;spacingLeft=4;spacingRight=4;overflow=hidden;rotatable=0;points=[[0,0.5],[1,0.5]];portConstraint=eastwest;rounded=0;shadow=0;html=0;fontStyle=0" parent="VXXqU22cxP4O66-GsX6c-81" vertex="1">
          <mxGeometry y="190" width="790" height="26" as="geometry" />
        </mxCell>
        <mxCell id="VXXqU22cxP4O66-GsX6c-94" value="" style="endArrow=block;endSize=10;endFill=0;shadow=0;strokeWidth=1;rounded=0;edgeStyle=elbowEdgeStyle;elbow=vertical;exitX=0.511;exitY=-0.014;exitDx=0;exitDy=0;exitPerimeter=0;entryX=1;entryY=0.5;entryDx=0;entryDy=0;" parent="WIyWlLk6GJQsqaUBKTNV-1" source="VXXqU22cxP4O66-GsX6c-81" edge="1" target="RKgf0716FIMQqNylsl5L-21">
          <mxGeometry width="160" relative="1" as="geometry">
            <mxPoint x="1094" y="371" as="sourcePoint" />
            <mxPoint x="1420" y="260" as="targetPoint" />
            <Array as="points">
              <mxPoint x="990" y="217" />
              <mxPoint x="1020" y="350" />
              <mxPoint x="1010" y="285" />
              <mxPoint x="1010" y="360" />
              <mxPoint x="1010" y="371" />
            </Array>
          </mxGeometry>
        </mxCell>
        <mxCell id="VXXqU22cxP4O66-GsX6c-100" value="&lt;font style=&quot;font-size: 28px&quot;&gt;c) Fue necesario agregar la clase EmpleadoContratado que es una clase hija de Empleado.&lt;br&gt;No se necesito modificar la clase empresa porque no tiene dependencia con la clase hija, al estar abstraida en la clase padre no se necesito modificar partes del codigo de la empresa&lt;br&gt;&lt;/font&gt;" style="text;html=1;strokeColor=none;fillColor=none;align=left;verticalAlign=middle;whiteSpace=wrap;rounded=0;fontSize=46;" parent="WIyWlLk6GJQsqaUBKTNV-1" vertex="1">
          <mxGeometry x="-770" y="990" width="1500" height="160" as="geometry" />
        </mxCell>
        <mxCell id="RKgf0716FIMQqNylsl5L-5" value="Empresa" style="swimlane;fontStyle=1;align=center;verticalAlign=top;childLayout=stackLayout;horizontal=1;startSize=26;horizontalStack=0;resizeParent=1;resizeLast=0;collapsible=1;marginBottom=0;rounded=0;shadow=0;strokeWidth=1;" vertex="1" parent="WIyWlLk6GJQsqaUBKTNV-1">
          <mxGeometry x="-330" y="100" width="250" height="294" as="geometry">
            <mxRectangle x="130" y="380" width="160" height="26" as="alternateBounds" />
          </mxGeometry>
        </mxCell>
        <mxCell id="RKgf0716FIMQqNylsl5L-6" value="- nombre: String" style="text;align=left;verticalAlign=top;spacingLeft=4;spacingRight=4;overflow=hidden;rotatable=0;points=[[0,0.5],[1,0.5]];portConstraint=eastwest;" vertex="1" parent="RKgf0716FIMQqNylsl5L-5">
          <mxGeometry y="26" width="250" height="26" as="geometry" />
        </mxCell>
        <mxCell id="RKgf0716FIMQqNylsl5L-7" value="- cuit: String" style="text;align=left;verticalAlign=top;spacingLeft=4;spacingRight=4;overflow=hidden;rotatable=0;points=[[0,0.5],[1,0.5]];portConstraint=eastwest;rounded=0;shadow=0;html=0;" vertex="1" parent="RKgf0716FIMQqNylsl5L-5">
          <mxGeometry y="52" width="250" height="26" as="geometry" />
        </mxCell>
        <mxCell id="RKgf0716FIMQqNylsl5L-8" value="" style="line;html=1;strokeWidth=1;align=left;verticalAlign=middle;spacingTop=-1;spacingLeft=3;spacingRight=3;rotatable=0;labelPosition=right;points=[];portConstraint=eastwest;" vertex="1" parent="RKgf0716FIMQqNylsl5L-5">
          <mxGeometry y="78" width="250" height="8" as="geometry" />
        </mxCell>
        <mxCell id="RKgf0716FIMQqNylsl5L-9" value="+ new()" style="text;align=left;verticalAlign=top;spacingLeft=4;spacingRight=4;overflow=hidden;rotatable=0;points=[[0,0.5],[1,0.5]];portConstraint=eastwest;fontStyle=4" vertex="1" parent="RKgf0716FIMQqNylsl5L-5">
          <mxGeometry y="86" width="250" height="26" as="geometry" />
        </mxCell>
        <mxCell id="RKgf0716FIMQqNylsl5L-10" value="+ new(String nombre, String cuit)" style="text;align=left;verticalAlign=top;spacingLeft=4;spacingRight=4;overflow=hidden;rotatable=0;points=[[0,0.5],[1,0.5]];portConstraint=eastwest;fontStyle=4" vertex="1" parent="RKgf0716FIMQqNylsl5L-5">
          <mxGeometry y="112" width="250" height="26" as="geometry" />
        </mxCell>
        <mxCell id="RKgf0716FIMQqNylsl5L-11" value="+ agregarEmpleado(): Empresa" style="text;align=left;verticalAlign=top;spacingLeft=4;spacingRight=4;overflow=hidden;rotatable=0;points=[[0,0.5],[1,0.5]];portConstraint=eastwest;" vertex="1" parent="RKgf0716FIMQqNylsl5L-5">
          <mxGeometry y="138" width="250" height="26" as="geometry" />
        </mxCell>
        <mxCell id="RKgf0716FIMQqNylsl5L-12" value="+ montoTotalSueldosNetos(): Double" style="text;align=left;verticalAlign=top;spacingLeft=4;spacingRight=4;overflow=hidden;rotatable=0;points=[[0,0.5],[1,0.5]];portConstraint=eastwest;" vertex="1" parent="RKgf0716FIMQqNylsl5L-5">
          <mxGeometry y="164" width="250" height="26" as="geometry" />
        </mxCell>
        <mxCell id="RKgf0716FIMQqNylsl5L-13" value="+ montoTotalSueldosBrutos(): Double" style="text;align=left;verticalAlign=top;spacingLeft=4;spacingRight=4;overflow=hidden;rotatable=0;points=[[0,0.5],[1,0.5]];portConstraint=eastwest;" vertex="1" parent="RKgf0716FIMQqNylsl5L-5">
          <mxGeometry y="190" width="250" height="26" as="geometry" />
        </mxCell>
        <mxCell id="RKgf0716FIMQqNylsl5L-14" value="+ montoTotalRetenciones(): Double" style="text;align=left;verticalAlign=top;spacingLeft=4;spacingRight=4;overflow=hidden;rotatable=0;points=[[0,0.5],[1,0.5]];portConstraint=eastwest;" vertex="1" parent="RKgf0716FIMQqNylsl5L-5">
          <mxGeometry y="216" width="250" height="26" as="geometry" />
        </mxCell>
        <mxCell id="RKgf0716FIMQqNylsl5L-15" value="+ liquidacionSueldos(): void" style="text;align=left;verticalAlign=top;spacingLeft=4;spacingRight=4;overflow=hidden;rotatable=0;points=[[0,0.5],[1,0.5]];portConstraint=eastwest;" vertex="1" parent="RKgf0716FIMQqNylsl5L-5">
          <mxGeometry y="242" width="250" height="26" as="geometry" />
        </mxCell>
        <mxCell id="RKgf0716FIMQqNylsl5L-16" value="+ reciboHaberes(): List&lt;ReciboHaberes&gt;" style="text;align=left;verticalAlign=top;spacingLeft=4;spacingRight=4;overflow=hidden;rotatable=0;points=[[0,0.5],[1,0.5]];portConstraint=eastwest;" vertex="1" parent="RKgf0716FIMQqNylsl5L-5">
          <mxGeometry y="268" width="250" height="26" as="geometry" />
        </mxCell>
        <mxCell id="RKgf0716FIMQqNylsl5L-17" value="Empleado" style="swimlane;fontStyle=3;align=center;verticalAlign=top;childLayout=stackLayout;horizontal=1;startSize=26;horizontalStack=0;resizeParent=1;resizeLast=0;collapsible=1;marginBottom=0;rounded=0;shadow=0;strokeWidth=1;" vertex="1" parent="WIyWlLk6GJQsqaUBKTNV-1">
          <mxGeometry x="90" y="100" width="580" height="320" as="geometry">
            <mxRectangle x="550" y="140" width="160" height="26" as="alternateBounds" />
          </mxGeometry>
        </mxCell>
        <mxCell id="RKgf0716FIMQqNylsl5L-18" value="# nombre: String" style="text;align=left;verticalAlign=top;spacingLeft=4;spacingRight=4;overflow=hidden;rotatable=0;points=[[0,0.5],[1,0.5]];portConstraint=eastwest;" vertex="1" parent="RKgf0716FIMQqNylsl5L-17">
          <mxGeometry y="26" width="580" height="26" as="geometry" />
        </mxCell>
        <mxCell id="RKgf0716FIMQqNylsl5L-19" value="# direccion: String" style="text;align=left;verticalAlign=top;spacingLeft=4;spacingRight=4;overflow=hidden;rotatable=0;points=[[0,0.5],[1,0.5]];portConstraint=eastwest;rounded=0;shadow=0;html=0;" vertex="1" parent="RKgf0716FIMQqNylsl5L-17">
          <mxGeometry y="52" width="580" height="26" as="geometry" />
        </mxCell>
        <mxCell id="RKgf0716FIMQqNylsl5L-20" value="# estadoCivil: Boolean" style="text;align=left;verticalAlign=top;spacingLeft=4;spacingRight=4;overflow=hidden;rotatable=0;points=[[0,0.5],[1,0.5]];portConstraint=eastwest;rounded=0;shadow=0;html=0;" vertex="1" parent="RKgf0716FIMQqNylsl5L-17">
          <mxGeometry y="78" width="580" height="26" as="geometry" />
        </mxCell>
        <mxCell id="RKgf0716FIMQqNylsl5L-21" value="# fechaNacimiento: Date" style="text;align=left;verticalAlign=top;spacingLeft=4;spacingRight=4;overflow=hidden;rotatable=0;points=[[0,0.5],[1,0.5]];portConstraint=eastwest;rounded=0;shadow=0;html=0;" vertex="1" parent="RKgf0716FIMQqNylsl5L-17">
          <mxGeometry y="104" width="580" height="26" as="geometry" />
        </mxCell>
        <mxCell id="RKgf0716FIMQqNylsl5L-22" value="# sueldoBasico: Double" style="text;align=left;verticalAlign=top;spacingLeft=4;spacingRight=4;overflow=hidden;rotatable=0;points=[[0,0.5],[1,0.5]];portConstraint=eastwest;rounded=0;shadow=0;html=0;" vertex="1" parent="RKgf0716FIMQqNylsl5L-17">
          <mxGeometry y="130" width="580" height="26" as="geometry" />
        </mxCell>
        <mxCell id="RKgf0716FIMQqNylsl5L-23" value="" style="line;html=1;strokeWidth=1;align=left;verticalAlign=middle;spacingTop=-1;spacingLeft=3;spacingRight=3;rotatable=0;labelPosition=right;points=[];portConstraint=eastwest;" vertex="1" parent="RKgf0716FIMQqNylsl5L-17">
          <mxGeometry y="156" width="580" height="8" as="geometry" />
        </mxCell>
        <mxCell id="RKgf0716FIMQqNylsl5L-24" value="+ new(String nombre, String direccion, Boolean estadoCivil, Date fechaNacimiento, Double sueldoBasico)" style="text;align=left;verticalAlign=top;spacingLeft=4;spacingRight=4;overflow=hidden;rotatable=0;points=[[0,0.5],[1,0.5]];portConstraint=eastwest;fontStyle=4" vertex="1" parent="RKgf0716FIMQqNylsl5L-17">
          <mxGeometry y="164" width="580" height="26" as="geometry" />
        </mxCell>
        <mxCell id="RKgf0716FIMQqNylsl5L-25" value="+ calcularEdad(): Integer" style="text;align=left;verticalAlign=top;spacingLeft=4;spacingRight=4;overflow=hidden;rotatable=0;points=[[0,0.5],[1,0.5]];portConstraint=eastwest;" vertex="1" parent="RKgf0716FIMQqNylsl5L-17">
          <mxGeometry y="190" width="580" height="26" as="geometry" />
        </mxCell>
        <mxCell id="RKgf0716FIMQqNylsl5L-26" value="+ calcularSueldoBruto(): Double" style="text;align=left;verticalAlign=top;spacingLeft=4;spacingRight=4;overflow=hidden;rotatable=0;points=[[0,0.5],[1,0.5]];portConstraint=eastwest;" vertex="1" parent="RKgf0716FIMQqNylsl5L-17">
          <mxGeometry y="216" width="580" height="26" as="geometry" />
        </mxCell>
        <mxCell id="RKgf0716FIMQqNylsl5L-27" value="+ calcularRetenciones(): Double" style="text;align=left;verticalAlign=top;spacingLeft=4;spacingRight=4;overflow=hidden;rotatable=0;points=[[0,0.5],[1,0.5]];portConstraint=eastwest;" vertex="1" parent="RKgf0716FIMQqNylsl5L-17">
          <mxGeometry y="242" width="580" height="26" as="geometry" />
        </mxCell>
        <mxCell id="RKgf0716FIMQqNylsl5L-28" value="+ calcularSueldoNetoRestante(): Double" style="text;align=left;verticalAlign=top;spacingLeft=4;spacingRight=4;overflow=hidden;rotatable=0;points=[[0,0.5],[1,0.5]];portConstraint=eastwest;" vertex="1" parent="RKgf0716FIMQqNylsl5L-17">
          <mxGeometry y="268" width="580" height="26" as="geometry" />
        </mxCell>
        <mxCell id="RKgf0716FIMQqNylsl5L-29" value="+ conceptos(): String" style="text;align=left;verticalAlign=top;spacingLeft=4;spacingRight=4;overflow=hidden;rotatable=0;points=[[0,0.5],[1,0.5]];portConstraint=eastwest;" vertex="1" parent="RKgf0716FIMQqNylsl5L-17">
          <mxGeometry y="294" width="580" height="26" as="geometry" />
        </mxCell>
        <mxCell id="RKgf0716FIMQqNylsl5L-30" value="" style="endArrow=open;shadow=0;strokeWidth=1;rounded=0;endFill=1;edgeStyle=elbowEdgeStyle;elbow=vertical;exitX=1;exitY=0.5;exitDx=0;exitDy=0;entryX=0;entryY=0.5;entryDx=0;entryDy=0;" edge="1" parent="WIyWlLk6GJQsqaUBKTNV-1" source="RKgf0716FIMQqNylsl5L-7" target="RKgf0716FIMQqNylsl5L-19">
          <mxGeometry x="0.5" y="41" relative="1" as="geometry">
            <mxPoint x="-90" y="190" as="sourcePoint" />
            <mxPoint x="50" y="190" as="targetPoint" />
            <mxPoint x="-40" y="32" as="offset" />
          </mxGeometry>
        </mxCell>
        <mxCell id="RKgf0716FIMQqNylsl5L-31" value="1" style="resizable=0;align=left;verticalAlign=bottom;labelBackgroundColor=none;fontSize=12;" connectable="0" vertex="1" parent="RKgf0716FIMQqNylsl5L-30">
          <mxGeometry x="-1" relative="1" as="geometry">
            <mxPoint x="1" y="2" as="offset" />
          </mxGeometry>
        </mxCell>
        <mxCell id="RKgf0716FIMQqNylsl5L-32" value="*" style="resizable=0;align=right;verticalAlign=bottom;labelBackgroundColor=none;fontSize=12;" connectable="0" vertex="1" parent="RKgf0716FIMQqNylsl5L-30">
          <mxGeometry x="1" relative="1" as="geometry">
            <mxPoint x="-7" y="2" as="offset" />
          </mxGeometry>
        </mxCell>
        <mxCell id="RKgf0716FIMQqNylsl5L-33" value="empleados" style="text;html=1;resizable=0;points=[];;align=center;verticalAlign=middle;labelBackgroundColor=none;rounded=0;shadow=0;strokeWidth=1;fontSize=12;" vertex="1" connectable="0" parent="RKgf0716FIMQqNylsl5L-30">
          <mxGeometry x="0.5" y="49" relative="1" as="geometry">
            <mxPoint x="-40" y="40" as="offset" />
          </mxGeometry>
        </mxCell>
        <mxCell id="RKgf0716FIMQqNylsl5L-34" value="EmpleadoTemporal" style="swimlane;fontStyle=1;align=center;verticalAlign=top;childLayout=stackLayout;horizontal=1;startSize=26;horizontalStack=0;resizeParent=1;resizeLast=0;collapsible=1;marginBottom=0;rounded=0;shadow=0;strokeWidth=1;" vertex="1" parent="WIyWlLk6GJQsqaUBKTNV-1">
          <mxGeometry x="-710" y="650" width="880" height="294" as="geometry">
            <mxRectangle x="550" y="140" width="160" height="26" as="alternateBounds" />
          </mxGeometry>
        </mxCell>
        <mxCell id="RKgf0716FIMQqNylsl5L-35" value="- fechaFinDesignacion: Date" style="text;align=left;verticalAlign=top;spacingLeft=4;spacingRight=4;overflow=hidden;rotatable=0;points=[[0,0.5],[1,0.5]];portConstraint=eastwest;" vertex="1" parent="RKgf0716FIMQqNylsl5L-34">
          <mxGeometry y="26" width="880" height="26" as="geometry" />
        </mxCell>
        <mxCell id="RKgf0716FIMQqNylsl5L-36" value="- cantidadHorasExtras: Integer" style="text;align=left;verticalAlign=top;spacingLeft=4;spacingRight=4;overflow=hidden;rotatable=0;points=[[0,0.5],[1,0.5]];portConstraint=eastwest;rounded=0;shadow=0;html=0;" vertex="1" parent="RKgf0716FIMQqNylsl5L-34">
          <mxGeometry y="52" width="880" height="26" as="geometry" />
        </mxCell>
        <mxCell id="RKgf0716FIMQqNylsl5L-37" value="" style="line;html=1;strokeWidth=1;align=left;verticalAlign=middle;spacingTop=-1;spacingLeft=3;spacingRight=3;rotatable=0;labelPosition=right;points=[];portConstraint=eastwest;" vertex="1" parent="RKgf0716FIMQqNylsl5L-34">
          <mxGeometry y="78" width="880" height="8" as="geometry" />
        </mxCell>
        <mxCell id="RKgf0716FIMQqNylsl5L-38" value="+ new(String nombre, String direccion, Boolean estadoCivil, Date fechaNacimiento, Double sueldoBasico, Date fechaFinDesignacion, Integer cantidadHorasExtras)" style="text;align=left;verticalAlign=top;spacingLeft=4;spacingRight=4;overflow=hidden;rotatable=0;points=[[0,0.5],[1,0.5]];portConstraint=eastwest;rounded=0;shadow=0;html=0;fontStyle=4" vertex="1" parent="RKgf0716FIMQqNylsl5L-34">
          <mxGeometry y="86" width="880" height="26" as="geometry" />
        </mxCell>
        <mxCell id="RKgf0716FIMQqNylsl5L-39" value="+ calcularSueldoBruto(): Double" style="text;align=left;verticalAlign=top;spacingLeft=4;spacingRight=4;overflow=hidden;rotatable=0;points=[[0,0.5],[1,0.5]];portConstraint=eastwest;rounded=0;shadow=0;html=0;" vertex="1" parent="RKgf0716FIMQqNylsl5L-34">
          <mxGeometry y="112" width="880" height="26" as="geometry" />
        </mxCell>
        <mxCell id="RKgf0716FIMQqNylsl5L-40" value="+ calcularRetenciones(): Double" style="text;align=left;verticalAlign=top;spacingLeft=4;spacingRight=4;overflow=hidden;rotatable=0;points=[[0,0.5],[1,0.5]];portConstraint=eastwest;rounded=0;shadow=0;html=0;" vertex="1" parent="RKgf0716FIMQqNylsl5L-34">
          <mxGeometry y="138" width="880" height="26" as="geometry" />
        </mxCell>
        <mxCell id="RKgf0716FIMQqNylsl5L-41" value="+ tieneMasDe50Años(): Double" style="text;align=left;verticalAlign=top;spacingLeft=4;spacingRight=4;overflow=hidden;rotatable=0;points=[[0,0.5],[1,0.5]];portConstraint=eastwest;rounded=0;shadow=0;html=0;" vertex="1" parent="RKgf0716FIMQqNylsl5L-34">
          <mxGeometry y="164" width="880" height="26" as="geometry" />
        </mxCell>
        <mxCell id="RKgf0716FIMQqNylsl5L-42" value="+ sueldoBasico(): Double" style="text;align=left;verticalAlign=top;spacingLeft=4;spacingRight=4;overflow=hidden;rotatable=0;points=[[0,0.5],[1,0.5]];portConstraint=eastwest;rounded=0;shadow=0;html=0;" vertex="1" parent="RKgf0716FIMQqNylsl5L-34">
          <mxGeometry y="190" width="880" height="26" as="geometry" />
        </mxCell>
        <mxCell id="RKgf0716FIMQqNylsl5L-43" value="+ obraSocial(): Double" style="text;align=left;verticalAlign=top;spacingLeft=4;spacingRight=4;overflow=hidden;rotatable=0;points=[[0,0.5],[1,0.5]];portConstraint=eastwest;rounded=0;shadow=0;html=0;" vertex="1" parent="RKgf0716FIMQqNylsl5L-34">
          <mxGeometry y="216" width="880" height="26" as="geometry" />
        </mxCell>
        <mxCell id="RKgf0716FIMQqNylsl5L-44" value="+ aportesJubilatorios(): Double" style="text;align=left;verticalAlign=top;spacingLeft=4;spacingRight=4;overflow=hidden;rotatable=0;points=[[0,0.5],[1,0.5]];portConstraint=eastwest;rounded=0;shadow=0;html=0;" vertex="1" parent="RKgf0716FIMQqNylsl5L-34">
          <mxGeometry y="242" width="880" height="26" as="geometry" />
        </mxCell>
        <mxCell id="RKgf0716FIMQqNylsl5L-45" value="+ conceptos(): String" style="text;align=left;verticalAlign=top;spacingLeft=4;spacingRight=4;overflow=hidden;rotatable=0;points=[[0,0.5],[1,0.5]];portConstraint=eastwest;rounded=0;shadow=0;html=0;" vertex="1" parent="RKgf0716FIMQqNylsl5L-34">
          <mxGeometry y="268" width="880" height="26" as="geometry" />
        </mxCell>
        <mxCell id="RKgf0716FIMQqNylsl5L-46" value="EmpleadoPermanente" style="swimlane;fontStyle=1;align=center;verticalAlign=top;childLayout=stackLayout;horizontal=1;startSize=26;horizontalStack=0;resizeParent=1;resizeLast=0;collapsible=1;marginBottom=0;rounded=0;shadow=0;strokeWidth=1;" vertex="1" parent="WIyWlLk6GJQsqaUBKTNV-1">
          <mxGeometry x="240" y="650" width="790" height="320" as="geometry">
            <mxRectangle x="510" y="880" width="160" height="26" as="alternateBounds" />
          </mxGeometry>
        </mxCell>
        <mxCell id="RKgf0716FIMQqNylsl5L-47" value="- cantidadDeHijos: Integer" style="text;align=left;verticalAlign=top;spacingLeft=4;spacingRight=4;overflow=hidden;rotatable=0;points=[[0,0.5],[1,0.5]];portConstraint=eastwest;" vertex="1" parent="RKgf0716FIMQqNylsl5L-46">
          <mxGeometry y="26" width="790" height="26" as="geometry" />
        </mxCell>
        <mxCell id="RKgf0716FIMQqNylsl5L-48" value="- antiguedad: Date" style="text;align=left;verticalAlign=top;spacingLeft=4;spacingRight=4;overflow=hidden;rotatable=0;points=[[0,0.5],[1,0.5]];portConstraint=eastwest;rounded=0;shadow=0;html=0;" vertex="1" parent="RKgf0716FIMQqNylsl5L-46">
          <mxGeometry y="52" width="790" height="26" as="geometry" />
        </mxCell>
        <mxCell id="RKgf0716FIMQqNylsl5L-49" value="" style="line;html=1;strokeWidth=1;align=left;verticalAlign=middle;spacingTop=-1;spacingLeft=3;spacingRight=3;rotatable=0;labelPosition=right;points=[];portConstraint=eastwest;" vertex="1" parent="RKgf0716FIMQqNylsl5L-46">
          <mxGeometry y="78" width="790" height="8" as="geometry" />
        </mxCell>
        <mxCell id="RKgf0716FIMQqNylsl5L-50" value="+ new(String nombre, String direccion, Boolean estadoCivil, Date fechaNacimiento, Double sueldoBasico, Integer cantidadHijos, Date antiguedad)" style="text;align=left;verticalAlign=top;spacingLeft=4;spacingRight=4;overflow=hidden;rotatable=0;points=[[0,0.5],[1,0.5]];portConstraint=eastwest;rounded=0;shadow=0;html=0;fontStyle=4" vertex="1" parent="RKgf0716FIMQqNylsl5L-46">
          <mxGeometry y="86" width="790" height="26" as="geometry" />
        </mxCell>
        <mxCell id="RKgf0716FIMQqNylsl5L-51" value="+ calcularSueldoBruto(): Double" style="text;align=left;verticalAlign=top;spacingLeft=4;spacingRight=4;overflow=hidden;rotatable=0;points=[[0,0.5],[1,0.5]];portConstraint=eastwest;rounded=0;shadow=0;html=0;fontStyle=0" vertex="1" parent="RKgf0716FIMQqNylsl5L-46">
          <mxGeometry y="112" width="790" height="26" as="geometry" />
        </mxCell>
        <mxCell id="RKgf0716FIMQqNylsl5L-52" value="+ calcularRetenciones(): Double" style="text;align=left;verticalAlign=top;spacingLeft=4;spacingRight=4;overflow=hidden;rotatable=0;points=[[0,0.5],[1,0.5]];portConstraint=eastwest;rounded=0;shadow=0;html=0;fontStyle=0" vertex="1" parent="RKgf0716FIMQqNylsl5L-46">
          <mxGeometry y="138" width="790" height="26" as="geometry" />
        </mxCell>
        <mxCell id="RKgf0716FIMQqNylsl5L-53" value="+ asignacionPorHijo(): Double" style="text;align=left;verticalAlign=top;spacingLeft=4;spacingRight=4;overflow=hidden;rotatable=0;points=[[0,0.5],[1,0.5]];portConstraint=eastwest;rounded=0;shadow=0;html=0;fontStyle=0" vertex="1" parent="RKgf0716FIMQqNylsl5L-46">
          <mxGeometry y="164" width="790" height="26" as="geometry" />
        </mxCell>
        <mxCell id="RKgf0716FIMQqNylsl5L-54" value="+ asignacionPorConyuge(): Double" style="text;align=left;verticalAlign=top;spacingLeft=4;spacingRight=4;overflow=hidden;rotatable=0;points=[[0,0.5],[1,0.5]];portConstraint=eastwest;rounded=0;shadow=0;html=0;fontStyle=0" vertex="1" parent="RKgf0716FIMQqNylsl5L-46">
          <mxGeometry y="190" width="790" height="26" as="geometry" />
        </mxCell>
        <mxCell id="RKgf0716FIMQqNylsl5L-55" value="+ antiguedad(): Integer" style="text;align=left;verticalAlign=top;spacingLeft=4;spacingRight=4;overflow=hidden;rotatable=0;points=[[0,0.5],[1,0.5]];portConstraint=eastwest;rounded=0;shadow=0;html=0;fontStyle=0" vertex="1" parent="RKgf0716FIMQqNylsl5L-46">
          <mxGeometry y="216" width="790" height="26" as="geometry" />
        </mxCell>
        <mxCell id="RKgf0716FIMQqNylsl5L-56" value="+ obraSocial(): Double" style="text;align=left;verticalAlign=top;spacingLeft=4;spacingRight=4;overflow=hidden;rotatable=0;points=[[0,0.5],[1,0.5]];portConstraint=eastwest;rounded=0;shadow=0;html=0;fontStyle=0" vertex="1" parent="RKgf0716FIMQqNylsl5L-46">
          <mxGeometry y="242" width="790" height="26" as="geometry" />
        </mxCell>
        <mxCell id="RKgf0716FIMQqNylsl5L-57" value="+ aportesJubilatorios(): Double" style="text;align=left;verticalAlign=top;spacingLeft=4;spacingRight=4;overflow=hidden;rotatable=0;points=[[0,0.5],[1,0.5]];portConstraint=eastwest;rounded=0;shadow=0;html=0;fontStyle=0" vertex="1" parent="RKgf0716FIMQqNylsl5L-46">
          <mxGeometry y="268" width="790" height="26" as="geometry" />
        </mxCell>
        <mxCell id="RKgf0716FIMQqNylsl5L-58" value="+ conceptos(): String" style="text;align=left;verticalAlign=top;spacingLeft=4;spacingRight=4;overflow=hidden;rotatable=0;points=[[0,0.5],[1,0.5]];portConstraint=eastwest;rounded=0;shadow=0;html=0;fontStyle=0" vertex="1" parent="RKgf0716FIMQqNylsl5L-46">
          <mxGeometry y="294" width="790" height="26" as="geometry" />
        </mxCell>
        <mxCell id="RKgf0716FIMQqNylsl5L-59" value="" style="endArrow=block;endSize=10;endFill=0;shadow=0;strokeWidth=1;rounded=0;edgeStyle=elbowEdgeStyle;elbow=vertical;exitX=0.5;exitY=0;exitDx=0;exitDy=0;entryX=0.5;entryY=1;entryDx=0;entryDy=0;" edge="1" parent="WIyWlLk6GJQsqaUBKTNV-1" source="RKgf0716FIMQqNylsl5L-46" target="RKgf0716FIMQqNylsl5L-17">
          <mxGeometry width="160" relative="1" as="geometry">
            <mxPoint x="40" y="-80" as="sourcePoint" />
            <mxPoint x="320" y="390" as="targetPoint" />
          </mxGeometry>
        </mxCell>
        <mxCell id="RKgf0716FIMQqNylsl5L-60" value="" style="endArrow=block;endSize=10;endFill=0;shadow=0;strokeWidth=1;rounded=0;edgeStyle=elbowEdgeStyle;elbow=vertical;exitX=0.5;exitY=0;exitDx=0;exitDy=0;entryX=0.25;entryY=1;entryDx=0;entryDy=0;" edge="1" parent="WIyWlLk6GJQsqaUBKTNV-1" source="RKgf0716FIMQqNylsl5L-34" target="RKgf0716FIMQqNylsl5L-17">
          <mxGeometry width="160" relative="1" as="geometry">
            <mxPoint x="-203.2" y="416.75" as="sourcePoint" />
            <mxPoint x="40" y="390" as="targetPoint" />
          </mxGeometry>
        </mxCell>
        <mxCell id="RKgf0716FIMQqNylsl5L-61" value="ReciboHaberes" style="swimlane;fontStyle=1;align=center;verticalAlign=top;childLayout=stackLayout;horizontal=1;startSize=26;horizontalStack=0;resizeParent=1;resizeLast=0;collapsible=1;marginBottom=0;rounded=0;shadow=0;strokeWidth=1;" vertex="1" parent="WIyWlLk6GJQsqaUBKTNV-1">
          <mxGeometry x="-820" y="280" width="330" height="60" as="geometry">
            <mxRectangle x="130" y="380" width="160" height="26" as="alternateBounds" />
          </mxGeometry>
        </mxCell>
        <mxCell id="RKgf0716FIMQqNylsl5L-62" value="" style="line;html=1;strokeWidth=1;align=left;verticalAlign=middle;spacingTop=-1;spacingLeft=3;spacingRight=3;rotatable=0;labelPosition=right;points=[];portConstraint=eastwest;" vertex="1" parent="RKgf0716FIMQqNylsl5L-61">
          <mxGeometry y="26" width="330" height="8" as="geometry" />
        </mxCell>
        <mxCell id="RKgf0716FIMQqNylsl5L-63" value="+ generarReciboHaberes(Empleado empleado) : String" style="text;align=left;verticalAlign=top;spacingLeft=4;spacingRight=4;overflow=hidden;rotatable=0;points=[[0,0.5],[1,0.5]];portConstraint=eastwest;rounded=0;shadow=0;html=0;fontStyle=0" vertex="1" parent="RKgf0716FIMQqNylsl5L-61">
          <mxGeometry y="34" width="330" height="26" as="geometry" />
        </mxCell>
        <mxCell id="RKgf0716FIMQqNylsl5L-64" value="" style="endArrow=open;shadow=0;strokeWidth=1;rounded=0;endFill=1;edgeStyle=elbowEdgeStyle;elbow=vertical;entryX=0.5;entryY=0;entryDx=0;entryDy=0;startArrow=none;startFill=0;exitX=0.004;exitY=0.923;exitDx=0;exitDy=0;exitPerimeter=0;" edge="1" parent="WIyWlLk6GJQsqaUBKTNV-1" source="RKgf0716FIMQqNylsl5L-6" target="RKgf0716FIMQqNylsl5L-61">
          <mxGeometry x="0.5" y="41" relative="1" as="geometry">
            <mxPoint x="-340" y="150" as="sourcePoint" />
            <mxPoint x="-450" y="340" as="targetPoint" />
            <mxPoint x="-40" y="32" as="offset" />
            <Array as="points">
              <mxPoint x="-350" y="150" />
            </Array>
          </mxGeometry>
        </mxCell>
        <mxCell id="RKgf0716FIMQqNylsl5L-65" value="1" style="resizable=0;align=left;verticalAlign=bottom;labelBackgroundColor=none;fontSize=12;" connectable="0" vertex="1" parent="RKgf0716FIMQqNylsl5L-64">
          <mxGeometry x="-1" relative="1" as="geometry">
            <mxPoint x="-19" y="2" as="offset" />
          </mxGeometry>
        </mxCell>
        <mxCell id="RKgf0716FIMQqNylsl5L-66" value="*" style="resizable=0;align=right;verticalAlign=bottom;labelBackgroundColor=none;fontSize=12;" connectable="0" vertex="1" parent="RKgf0716FIMQqNylsl5L-64">
          <mxGeometry x="1" relative="1" as="geometry">
            <mxPoint x="-7" y="2" as="offset" />
          </mxGeometry>
        </mxCell>
        <mxCell id="RKgf0716FIMQqNylsl5L-67" value="&lt;font style=&quot;font-size: 27px&quot;&gt;La clase empleado al ser abstracta permite tener metodos abstractos lo cual los sobrescriben la clase hija, tambien nos ayuda a tener una lista de empleados y no tener una lista por cada tipo de empleado&lt;/font&gt;" style="text;html=1;strokeColor=none;fillColor=none;align=left;verticalAlign=middle;whiteSpace=wrap;rounded=0;" vertex="1" parent="WIyWlLk6GJQsqaUBKTNV-1">
          <mxGeometry x="-780" y="-200" width="1940" height="70" as="geometry" />
        </mxCell>
      </root>
    </mxGraphModel>
  </diagram>
</mxfile>
